<mxfile host="app.diagrams.net" modified="2021-11-21T19:14:38.890Z" agent="5.0 (Windows NT 10.0; Win64; x64) AppleWebKit/537.36 (KHTML, like Gecko) Chrome/96.0.4664.45 Safari/537.36" etag="7URI33LV5Dno0LUu6TPR" version="15.8.3" type="github">
  <diagram id="C5RBs43oDa-KdzZeNtuy" name="Page-1">
    <mxGraphModel dx="1978" dy="1037" grid="0" gridSize="10" guides="1" tooltips="1" connect="1" arrows="1" fold="1" page="0" pageScale="1" pageWidth="827" pageHeight="1169" background="#182E3E" math="0" shadow="0">
      <root>
        <mxCell id="WIyWlLk6GJQsqaUBKTNV-0" />
        <mxCell id="WIyWlLk6GJQsqaUBKTNV-1" parent="WIyWlLk6GJQsqaUBKTNV-0" />
        <mxCell id="FY5nKimyKRe9Z_fMQVkA-3" value="" style="edgeStyle=orthogonalEdgeStyle;rounded=0;orthogonalLoop=1;jettySize=auto;html=1;strokeColor=#FFFFFF;fontColor=#FFFFFF;labelBackgroundColor=#182E3E;entryX=1;entryY=0.5;entryDx=0;entryDy=0;exitX=0.5;exitY=1;exitDx=0;exitDy=0;" parent="WIyWlLk6GJQsqaUBKTNV-1" source="WIyWlLk6GJQsqaUBKTNV-3" target="FY5nKimyKRe9Z_fMQVkA-0" edge="1">
          <mxGeometry relative="1" as="geometry" />
        </mxCell>
        <mxCell id="ii3OqB7PPO71eHfh43-R-1" style="edgeStyle=orthogonalEdgeStyle;rounded=0;orthogonalLoop=1;jettySize=auto;html=1;exitX=0.5;exitY=1;exitDx=0;exitDy=0;entryX=0;entryY=0.5;entryDx=0;entryDy=0;strokeColor=#FFFDFC;" edge="1" parent="WIyWlLk6GJQsqaUBKTNV-1" source="WIyWlLk6GJQsqaUBKTNV-3" target="ii3OqB7PPO71eHfh43-R-0">
          <mxGeometry relative="1" as="geometry" />
        </mxCell>
        <mxCell id="ii3OqB7PPO71eHfh43-R-10" style="edgeStyle=orthogonalEdgeStyle;rounded=0;orthogonalLoop=1;jettySize=auto;html=1;exitX=0.5;exitY=1;exitDx=0;exitDy=0;strokeColor=#FFFDFC;" edge="1" parent="WIyWlLk6GJQsqaUBKTNV-1" source="WIyWlLk6GJQsqaUBKTNV-3" target="ii3OqB7PPO71eHfh43-R-9">
          <mxGeometry relative="1" as="geometry" />
        </mxCell>
        <mxCell id="WIyWlLk6GJQsqaUBKTNV-3" value="System Tasker" style="rounded=1;whiteSpace=wrap;html=1;fontSize=12;glass=0;strokeWidth=1;shadow=0;fillColor=#EEEEEE;strokeColor=#FFFFFF;fontColor=#1A1A1A;" parent="WIyWlLk6GJQsqaUBKTNV-1" vertex="1">
          <mxGeometry x="1110" y="-170" width="120" height="40" as="geometry" />
        </mxCell>
        <mxCell id="ii3OqB7PPO71eHfh43-R-7" style="edgeStyle=orthogonalEdgeStyle;rounded=0;orthogonalLoop=1;jettySize=auto;html=1;exitX=0.5;exitY=1;exitDx=0;exitDy=0;entryX=0.5;entryY=0;entryDx=0;entryDy=0;strokeColor=#FFFDFC;" edge="1" parent="WIyWlLk6GJQsqaUBKTNV-1" source="FY5nKimyKRe9Z_fMQVkA-0" target="ii3OqB7PPO71eHfh43-R-6">
          <mxGeometry relative="1" as="geometry" />
        </mxCell>
        <mxCell id="ii3OqB7PPO71eHfh43-R-8" style="edgeStyle=orthogonalEdgeStyle;rounded=0;orthogonalLoop=1;jettySize=auto;html=1;exitX=0.5;exitY=1;exitDx=0;exitDy=0;entryX=0;entryY=0.5;entryDx=0;entryDy=0;strokeColor=#FFFDFC;" edge="1" parent="WIyWlLk6GJQsqaUBKTNV-1" source="FY5nKimyKRe9Z_fMQVkA-0" target="ii3OqB7PPO71eHfh43-R-5">
          <mxGeometry relative="1" as="geometry" />
        </mxCell>
        <mxCell id="FY5nKimyKRe9Z_fMQVkA-0" value="Main" style="rounded=1;whiteSpace=wrap;html=1;fontSize=12;glass=0;strokeWidth=1;shadow=0;fillColor=#EEEEEE;strokeColor=#FFFFFF;fontColor=#1A1A1A;" parent="WIyWlLk6GJQsqaUBKTNV-1" vertex="1">
          <mxGeometry x="543" y="-83" width="120" height="40" as="geometry" />
        </mxCell>
        <mxCell id="FY5nKimyKRe9Z_fMQVkA-22" style="edgeStyle=orthogonalEdgeStyle;rounded=0;orthogonalLoop=1;jettySize=auto;html=1;strokeColor=#FFFFFF;fontColor=#FFFFFF;labelBackgroundColor=#182E3E;" parent="WIyWlLk6GJQsqaUBKTNV-1" source="FY5nKimyKRe9Z_fMQVkA-2" target="FY5nKimyKRe9Z_fMQVkA-20" edge="1">
          <mxGeometry relative="1" as="geometry" />
        </mxCell>
        <mxCell id="FY5nKimyKRe9Z_fMQVkA-23" style="edgeStyle=orthogonalEdgeStyle;rounded=0;orthogonalLoop=1;jettySize=auto;html=1;exitX=0;exitY=0.5;exitDx=0;exitDy=0;strokeColor=#FFFFFF;fontColor=#FFFFFF;labelBackgroundColor=#182E3E;" parent="WIyWlLk6GJQsqaUBKTNV-1" source="FY5nKimyKRe9Z_fMQVkA-2" target="FY5nKimyKRe9Z_fMQVkA-14" edge="1">
          <mxGeometry relative="1" as="geometry" />
        </mxCell>
        <mxCell id="FY5nKimyKRe9Z_fMQVkA-2" value="Arm/Mogo Dragger" style="rounded=1;whiteSpace=wrap;html=1;fontSize=12;glass=0;strokeWidth=1;shadow=0;fillColor=#EEEEEE;strokeColor=#FFFFFF;fontColor=#1A1A1A;" parent="WIyWlLk6GJQsqaUBKTNV-1" vertex="1">
          <mxGeometry x="1292" y="148" width="120" height="40" as="geometry" />
        </mxCell>
        <mxCell id="FY5nKimyKRe9Z_fMQVkA-9" style="edgeStyle=orthogonalEdgeStyle;rounded=0;orthogonalLoop=1;jettySize=auto;html=1;entryX=0;entryY=0.5;entryDx=0;entryDy=0;strokeColor=#FFFFFF;fontColor=#FFFFFF;labelBackgroundColor=#182E3E;" parent="WIyWlLk6GJQsqaUBKTNV-1" source="FY5nKimyKRe9Z_fMQVkA-6" target="FY5nKimyKRe9Z_fMQVkA-8" edge="1">
          <mxGeometry relative="1" as="geometry" />
        </mxCell>
        <mxCell id="FY5nKimyKRe9Z_fMQVkA-12" style="edgeStyle=orthogonalEdgeStyle;rounded=0;orthogonalLoop=1;jettySize=auto;html=1;entryX=0.5;entryY=0;entryDx=0;entryDy=0;strokeColor=#FFFFFF;fontColor=#FFFFFF;labelBackgroundColor=#182E3E;" parent="WIyWlLk6GJQsqaUBKTNV-1" source="FY5nKimyKRe9Z_fMQVkA-6" target="FY5nKimyKRe9Z_fMQVkA-10" edge="1">
          <mxGeometry relative="1" as="geometry">
            <mxPoint x="865" y="525" as="targetPoint" />
          </mxGeometry>
        </mxCell>
        <mxCell id="FY5nKimyKRe9Z_fMQVkA-13" style="edgeStyle=orthogonalEdgeStyle;rounded=0;orthogonalLoop=1;jettySize=auto;html=1;strokeColor=#FFFFFF;fontColor=#FFFFFF;labelBackgroundColor=#182E3E;" parent="WIyWlLk6GJQsqaUBKTNV-1" source="FY5nKimyKRe9Z_fMQVkA-6" target="FY5nKimyKRe9Z_fMQVkA-11" edge="1">
          <mxGeometry relative="1" as="geometry">
            <mxPoint x="970" y="525" as="targetPoint" />
          </mxGeometry>
        </mxCell>
        <mxCell id="FY5nKimyKRe9Z_fMQVkA-16" style="edgeStyle=orthogonalEdgeStyle;rounded=0;orthogonalLoop=1;jettySize=auto;html=1;exitX=1;exitY=0.5;exitDx=0;exitDy=0;entryX=0;entryY=0.5;entryDx=0;entryDy=0;strokeColor=#FFFFFF;fontColor=#FFFFFF;labelBackgroundColor=#182E3E;" parent="WIyWlLk6GJQsqaUBKTNV-1" source="FY5nKimyKRe9Z_fMQVkA-6" target="FY5nKimyKRe9Z_fMQVkA-15" edge="1">
          <mxGeometry relative="1" as="geometry" />
        </mxCell>
        <mxCell id="FY5nKimyKRe9Z_fMQVkA-6" value="Get Controller&lt;br&gt;Input" style="shape=parallelogram;perimeter=parallelogramPerimeter;whiteSpace=wrap;html=1;fixedSize=1;fillColor=#EEEEEE;strokeColor=#FFFFFF;fontColor=#1A1A1A;" parent="WIyWlLk6GJQsqaUBKTNV-1" vertex="1">
          <mxGeometry x="888" y="300" width="120" height="60" as="geometry" />
        </mxCell>
        <mxCell id="FY5nKimyKRe9Z_fMQVkA-8" value="Run Drivetrain" style="rounded=0;whiteSpace=wrap;html=1;fillColor=#EEEEEE;strokeColor=#FFFFFF;fontColor=#1A1A1A;" parent="WIyWlLk6GJQsqaUBKTNV-1" vertex="1">
          <mxGeometry x="1065" y="435" width="120" height="60" as="geometry" />
        </mxCell>
        <mxCell id="FY5nKimyKRe9Z_fMQVkA-10" value="Dock_State" style="shape=hexagon;perimeter=hexagonPerimeter2;whiteSpace=wrap;html=1;fixedSize=1;fillColor=#EEEEEE;strokeColor=#FFFFFF;fontColor=#1A1A1A;" parent="WIyWlLk6GJQsqaUBKTNV-1" vertex="1">
          <mxGeometry x="805" y="405" width="90" height="50" as="geometry" />
        </mxCell>
        <mxCell id="FY5nKimyKRe9Z_fMQVkA-11" value="Arm_State" style="shape=hexagon;perimeter=hexagonPerimeter2;whiteSpace=wrap;html=1;fixedSize=1;fillColor=#EEEEEE;strokeColor=#FFFFFF;fontColor=#1A1A1A;" parent="WIyWlLk6GJQsqaUBKTNV-1" vertex="1">
          <mxGeometry x="903" y="405" width="90" height="50" as="geometry" />
        </mxCell>
        <mxCell id="FY5nKimyKRe9Z_fMQVkA-21" style="edgeStyle=orthogonalEdgeStyle;rounded=0;orthogonalLoop=1;jettySize=auto;html=1;exitX=1;exitY=0.5;exitDx=0;exitDy=0;entryX=0;entryY=0.5;entryDx=0;entryDy=0;strokeColor=#FFFFFF;fontColor=#FFFFFF;labelBackgroundColor=#182E3E;" parent="WIyWlLk6GJQsqaUBKTNV-1" source="FY5nKimyKRe9Z_fMQVkA-14" target="FY5nKimyKRe9Z_fMQVkA-20" edge="1">
          <mxGeometry relative="1" as="geometry" />
        </mxCell>
        <mxCell id="FY5nKimyKRe9Z_fMQVkA-14" value="Get Arm Position&lt;br&gt;From Potentiometer" style="shape=parallelogram;perimeter=parallelogramPerimeter;whiteSpace=wrap;html=1;fixedSize=1;fillColor=#EEEEEE;strokeColor=#FFFFFF;fontColor=#1A1A1A;" parent="WIyWlLk6GJQsqaUBKTNV-1" vertex="1">
          <mxGeometry x="1117" y="229.5" width="154" height="53" as="geometry" />
        </mxCell>
        <mxCell id="FY5nKimyKRe9Z_fMQVkA-15" value="Run&amp;nbsp;&lt;br&gt;Intake/Conveyer" style="rounded=0;whiteSpace=wrap;html=1;fillColor=#EEEEEE;strokeColor=#FFFFFF;fontColor=#1A1A1A;" parent="WIyWlLk6GJQsqaUBKTNV-1" vertex="1">
          <mxGeometry x="1065" y="335" width="120" height="60" as="geometry" />
        </mxCell>
        <mxCell id="FY5nKimyKRe9Z_fMQVkA-41" style="edgeStyle=orthogonalEdgeStyle;rounded=0;orthogonalLoop=1;jettySize=auto;html=1;exitX=0.5;exitY=1;exitDx=0;exitDy=0;strokeColor=#FFFFFF;fontColor=#FFFFFF;labelBackgroundColor=#182E3E;" parent="WIyWlLk6GJQsqaUBKTNV-1" source="FY5nKimyKRe9Z_fMQVkA-1" target="FY5nKimyKRe9Z_fMQVkA-36" edge="1">
          <mxGeometry relative="1" as="geometry">
            <mxPoint x="1522" y="36" as="targetPoint" />
          </mxGeometry>
        </mxCell>
        <mxCell id="FY5nKimyKRe9Z_fMQVkA-1" value="Dock/Mogo Lifter" style="rounded=1;whiteSpace=wrap;html=1;fontSize=12;glass=0;strokeWidth=1;shadow=0;fillColor=#EEEEEE;strokeColor=#FFFFFF;fontColor=#1A1A1A;" parent="WIyWlLk6GJQsqaUBKTNV-1" vertex="1">
          <mxGeometry x="1582" y="-83" width="120" height="40" as="geometry" />
        </mxCell>
        <mxCell id="FY5nKimyKRe9Z_fMQVkA-25" style="edgeStyle=orthogonalEdgeStyle;rounded=0;orthogonalLoop=1;jettySize=auto;html=1;exitX=0.5;exitY=1;exitDx=0;exitDy=0;entryX=0.5;entryY=0;entryDx=0;entryDy=0;strokeColor=#FFFFFF;fontColor=#FFFFFF;labelBackgroundColor=#182E3E;" parent="WIyWlLk6GJQsqaUBKTNV-1" source="FY5nKimyKRe9Z_fMQVkA-20" target="FY5nKimyKRe9Z_fMQVkA-24" edge="1">
          <mxGeometry relative="1" as="geometry" />
        </mxCell>
        <mxCell id="FY5nKimyKRe9Z_fMQVkA-20" value="PID&lt;br&gt;Controller" style="rhombus;whiteSpace=wrap;html=1;fillColor=#EEEEEE;strokeColor=#FFFFFF;fontColor=#1A1A1A;" parent="WIyWlLk6GJQsqaUBKTNV-1" vertex="1">
          <mxGeometry x="1312" y="216" width="80" height="80" as="geometry" />
        </mxCell>
        <mxCell id="FY5nKimyKRe9Z_fMQVkA-24" value="Move Arm Motor" style="rounded=0;whiteSpace=wrap;html=1;fillColor=#EEEEEE;strokeColor=#FFFFFF;fontColor=#1A1A1A;" parent="WIyWlLk6GJQsqaUBKTNV-1" vertex="1">
          <mxGeometry x="1292" y="335" width="120" height="60" as="geometry" />
        </mxCell>
        <mxCell id="FY5nKimyKRe9Z_fMQVkA-28" style="edgeStyle=orthogonalEdgeStyle;rounded=0;orthogonalLoop=1;jettySize=auto;html=1;entryX=1;entryY=0.5;entryDx=0;entryDy=0;strokeColor=#FFFFFF;fontColor=#FFFFFF;labelBackgroundColor=#182E3E;" parent="WIyWlLk6GJQsqaUBKTNV-1" source="FY5nKimyKRe9Z_fMQVkA-27" target="FY5nKimyKRe9Z_fMQVkA-2" edge="1">
          <mxGeometry relative="1" as="geometry" />
        </mxCell>
        <mxCell id="FY5nKimyKRe9Z_fMQVkA-29" style="edgeStyle=orthogonalEdgeStyle;rounded=0;orthogonalLoop=1;jettySize=auto;html=1;exitX=0.5;exitY=1;exitDx=0;exitDy=0;entryX=1;entryY=0.5;entryDx=0;entryDy=0;strokeColor=#FFFFFF;fontColor=#FFFFFF;labelBackgroundColor=#182E3E;" parent="WIyWlLk6GJQsqaUBKTNV-1" source="FY5nKimyKRe9Z_fMQVkA-27" target="FY5nKimyKRe9Z_fMQVkA-20" edge="1">
          <mxGeometry relative="1" as="geometry" />
        </mxCell>
        <mxCell id="FY5nKimyKRe9Z_fMQVkA-27" value="Arm_State" style="shape=hexagon;perimeter=hexagonPerimeter2;whiteSpace=wrap;html=1;fixedSize=1;fillColor=#EEEEEE;strokeColor=#FFFFFF;fontColor=#1A1A1A;" parent="WIyWlLk6GJQsqaUBKTNV-1" vertex="1">
          <mxGeometry x="1447" y="143" width="90" height="50" as="geometry" />
        </mxCell>
        <mxCell id="FY5nKimyKRe9Z_fMQVkA-33" style="edgeStyle=orthogonalEdgeStyle;rounded=0;orthogonalLoop=1;jettySize=auto;html=1;exitX=0.5;exitY=1;exitDx=0;exitDy=0;entryX=0;entryY=0.5;entryDx=0;entryDy=0;strokeColor=#FFFFFF;fontColor=#FFFFFF;labelBackgroundColor=#182E3E;" parent="WIyWlLk6GJQsqaUBKTNV-1" source="FY5nKimyKRe9Z_fMQVkA-34" target="FY5nKimyKRe9Z_fMQVkA-36" edge="1">
          <mxGeometry relative="1" as="geometry" />
        </mxCell>
        <mxCell id="FY5nKimyKRe9Z_fMQVkA-34" value="Get Dock Position&lt;br&gt;From Motor Encoder" style="shape=parallelogram;perimeter=parallelogramPerimeter;whiteSpace=wrap;html=1;fixedSize=1;fillColor=#EEEEEE;strokeColor=#FFFFFF;fontColor=#1A1A1A;" parent="WIyWlLk6GJQsqaUBKTNV-1" vertex="1">
          <mxGeometry x="1447" y="-30" width="170" height="54" as="geometry" />
        </mxCell>
        <mxCell id="FY5nKimyKRe9Z_fMQVkA-35" style="edgeStyle=orthogonalEdgeStyle;rounded=0;orthogonalLoop=1;jettySize=auto;html=1;exitX=0.5;exitY=1;exitDx=0;exitDy=0;entryX=0.5;entryY=0;entryDx=0;entryDy=0;strokeColor=#FFFFFF;fontColor=#FFFFFF;labelBackgroundColor=#182E3E;" parent="WIyWlLk6GJQsqaUBKTNV-1" source="FY5nKimyKRe9Z_fMQVkA-36" target="FY5nKimyKRe9Z_fMQVkA-37" edge="1">
          <mxGeometry relative="1" as="geometry" />
        </mxCell>
        <mxCell id="FY5nKimyKRe9Z_fMQVkA-36" value="PID&lt;br&gt;Controller" style="rhombus;whiteSpace=wrap;html=1;fillColor=#EEEEEE;strokeColor=#FFFFFF;fontColor=#1A1A1A;" parent="WIyWlLk6GJQsqaUBKTNV-1" vertex="1">
          <mxGeometry x="1602" y="13" width="80" height="80" as="geometry" />
        </mxCell>
        <mxCell id="FY5nKimyKRe9Z_fMQVkA-37" value="Move Dock Motor" style="rounded=0;whiteSpace=wrap;html=1;fillColor=#EEEEEE;strokeColor=#FFFFFF;fontColor=#1A1A1A;" parent="WIyWlLk6GJQsqaUBKTNV-1" vertex="1">
          <mxGeometry x="1582" y="155" width="120" height="60" as="geometry" />
        </mxCell>
        <mxCell id="FY5nKimyKRe9Z_fMQVkA-39" style="edgeStyle=orthogonalEdgeStyle;rounded=0;orthogonalLoop=1;jettySize=auto;html=1;exitX=0.5;exitY=1;exitDx=0;exitDy=0;entryX=1;entryY=0.5;entryDx=0;entryDy=0;strokeColor=#FFFFFF;fontColor=#FFFFFF;labelBackgroundColor=#182E3E;" parent="WIyWlLk6GJQsqaUBKTNV-1" source="FY5nKimyKRe9Z_fMQVkA-40" target="FY5nKimyKRe9Z_fMQVkA-36" edge="1">
          <mxGeometry relative="1" as="geometry" />
        </mxCell>
        <mxCell id="ii3OqB7PPO71eHfh43-R-4" style="edgeStyle=orthogonalEdgeStyle;rounded=0;orthogonalLoop=1;jettySize=auto;html=1;exitX=0.5;exitY=0;exitDx=0;exitDy=0;entryX=1;entryY=0.5;entryDx=0;entryDy=0;strokeColor=#FFFDFC;" edge="1" parent="WIyWlLk6GJQsqaUBKTNV-1" source="FY5nKimyKRe9Z_fMQVkA-40" target="FY5nKimyKRe9Z_fMQVkA-1">
          <mxGeometry relative="1" as="geometry" />
        </mxCell>
        <mxCell id="FY5nKimyKRe9Z_fMQVkA-40" value="Dock_State" style="shape=hexagon;perimeter=hexagonPerimeter2;whiteSpace=wrap;html=1;fixedSize=1;fillColor=#EEEEEE;strokeColor=#FFFFFF;fontColor=#1A1A1A;" parent="WIyWlLk6GJQsqaUBKTNV-1" vertex="1">
          <mxGeometry x="1726" y="-24" width="90" height="50" as="geometry" />
        </mxCell>
        <mxCell id="ii3OqB7PPO71eHfh43-R-2" style="edgeStyle=orthogonalEdgeStyle;rounded=0;orthogonalLoop=1;jettySize=auto;html=1;exitX=1;exitY=0.5;exitDx=0;exitDy=0;entryX=0;entryY=0.5;entryDx=0;entryDy=0;strokeColor=#FFFDFC;" edge="1" parent="WIyWlLk6GJQsqaUBKTNV-1" source="ii3OqB7PPO71eHfh43-R-0" target="FY5nKimyKRe9Z_fMQVkA-1">
          <mxGeometry relative="1" as="geometry" />
        </mxCell>
        <mxCell id="ii3OqB7PPO71eHfh43-R-3" style="edgeStyle=orthogonalEdgeStyle;rounded=0;orthogonalLoop=1;jettySize=auto;html=1;exitX=0.5;exitY=1;exitDx=0;exitDy=0;entryX=0.5;entryY=0;entryDx=0;entryDy=0;strokeColor=#FFFDFC;" edge="1" parent="WIyWlLk6GJQsqaUBKTNV-1" source="ii3OqB7PPO71eHfh43-R-0" target="FY5nKimyKRe9Z_fMQVkA-2">
          <mxGeometry relative="1" as="geometry" />
        </mxCell>
        <mxCell id="ii3OqB7PPO71eHfh43-R-0" value="External Tasker" style="rounded=1;whiteSpace=wrap;html=1;fontSize=12;glass=0;strokeWidth=1;shadow=0;fillColor=#EEEEEE;strokeColor=#FFFFFF;fontColor=#1A1A1A;" vertex="1" parent="WIyWlLk6GJQsqaUBKTNV-1">
          <mxGeometry x="1292" y="-83" width="120" height="40" as="geometry" />
        </mxCell>
        <mxCell id="ii3OqB7PPO71eHfh43-R-24" style="edgeStyle=orthogonalEdgeStyle;rounded=0;orthogonalLoop=1;jettySize=auto;html=1;exitX=0.5;exitY=1;exitDx=0;exitDy=0;entryX=0.5;entryY=0;entryDx=0;entryDy=0;strokeColor=#FFFDFC;" edge="1" parent="WIyWlLk6GJQsqaUBKTNV-1" source="ii3OqB7PPO71eHfh43-R-5" target="ii3OqB7PPO71eHfh43-R-23">
          <mxGeometry relative="1" as="geometry" />
        </mxCell>
        <mxCell id="ii3OqB7PPO71eHfh43-R-35" style="edgeStyle=orthogonalEdgeStyle;rounded=0;orthogonalLoop=1;jettySize=auto;html=1;exitX=1;exitY=0.5;exitDx=0;exitDy=0;entryX=0.25;entryY=0;entryDx=0;entryDy=0;strokeColor=#FFFDFC;" edge="1" parent="WIyWlLk6GJQsqaUBKTNV-1" source="ii3OqB7PPO71eHfh43-R-5" target="ii3OqB7PPO71eHfh43-R-18">
          <mxGeometry relative="1" as="geometry" />
        </mxCell>
        <mxCell id="ii3OqB7PPO71eHfh43-R-5" value="&lt;span style=&quot;font-weight: normal&quot;&gt;Operator Control&lt;/span&gt;" style="rounded=1;whiteSpace=wrap;html=1;fontSize=12;glass=0;strokeWidth=1;shadow=0;fillColor=#EEEEEE;strokeColor=#FFFFFF;fontColor=#1A1A1A;fontStyle=1" vertex="1" parent="WIyWlLk6GJQsqaUBKTNV-1">
          <mxGeometry x="693" y="-14" width="120" height="40" as="geometry" />
        </mxCell>
        <mxCell id="ii3OqB7PPO71eHfh43-R-34" style="edgeStyle=orthogonalEdgeStyle;rounded=0;orthogonalLoop=1;jettySize=auto;html=1;exitX=0.25;exitY=1;exitDx=0;exitDy=0;strokeColor=#FFFDFC;" edge="1" parent="WIyWlLk6GJQsqaUBKTNV-1" source="ii3OqB7PPO71eHfh43-R-6" target="ii3OqB7PPO71eHfh43-R-33">
          <mxGeometry relative="1" as="geometry" />
        </mxCell>
        <mxCell id="ii3OqB7PPO71eHfh43-R-6" value="Autonomous&amp;nbsp;" style="rounded=1;whiteSpace=wrap;html=1;fontSize=12;glass=0;strokeWidth=1;shadow=0;fillColor=#EEEEEE;strokeColor=#FFFFFF;fontColor=#1A1A1A;" vertex="1" parent="WIyWlLk6GJQsqaUBKTNV-1">
          <mxGeometry x="543" y="41" width="120" height="40" as="geometry" />
        </mxCell>
        <mxCell id="ii3OqB7PPO71eHfh43-R-15" style="edgeStyle=orthogonalEdgeStyle;rounded=0;orthogonalLoop=1;jettySize=auto;html=1;exitX=0;exitY=0.5;exitDx=0;exitDy=0;strokeColor=#FFFDFC;" edge="1" parent="WIyWlLk6GJQsqaUBKTNV-1" source="ii3OqB7PPO71eHfh43-R-9" target="ii3OqB7PPO71eHfh43-R-12">
          <mxGeometry relative="1" as="geometry" />
        </mxCell>
        <mxCell id="ii3OqB7PPO71eHfh43-R-22" style="edgeStyle=orthogonalEdgeStyle;rounded=0;orthogonalLoop=1;jettySize=auto;html=1;exitX=0.5;exitY=1;exitDx=0;exitDy=0;entryX=0.5;entryY=0;entryDx=0;entryDy=0;strokeColor=#FFFDFC;" edge="1" parent="WIyWlLk6GJQsqaUBKTNV-1" source="ii3OqB7PPO71eHfh43-R-9" target="ii3OqB7PPO71eHfh43-R-11">
          <mxGeometry relative="1" as="geometry" />
        </mxCell>
        <mxCell id="ii3OqB7PPO71eHfh43-R-9" value="Display" style="rounded=1;whiteSpace=wrap;html=1;fontSize=12;glass=0;strokeWidth=1;shadow=0;fillColor=#EEEEEE;strokeColor=#FFFFFF;fontColor=#1A1A1A;" vertex="1" parent="WIyWlLk6GJQsqaUBKTNV-1">
          <mxGeometry x="1110" y="-30" width="120" height="40" as="geometry" />
        </mxCell>
        <mxCell id="ii3OqB7PPO71eHfh43-R-21" style="edgeStyle=orthogonalEdgeStyle;rounded=0;orthogonalLoop=1;jettySize=auto;html=1;exitX=0;exitY=0.5;exitDx=0;exitDy=0;entryX=1;entryY=0.5;entryDx=0;entryDy=0;strokeColor=#FFFDFC;" edge="1" parent="WIyWlLk6GJQsqaUBKTNV-1" source="ii3OqB7PPO71eHfh43-R-11" target="ii3OqB7PPO71eHfh43-R-18">
          <mxGeometry relative="1" as="geometry" />
        </mxCell>
        <mxCell id="ii3OqB7PPO71eHfh43-R-28" style="edgeStyle=orthogonalEdgeStyle;rounded=0;orthogonalLoop=1;jettySize=auto;html=1;exitX=0;exitY=0.25;exitDx=0;exitDy=0;entryX=1;entryY=0.5;entryDx=0;entryDy=0;strokeColor=#FFFDFC;" edge="1" parent="WIyWlLk6GJQsqaUBKTNV-1" source="ii3OqB7PPO71eHfh43-R-11" target="ii3OqB7PPO71eHfh43-R-6">
          <mxGeometry relative="1" as="geometry" />
        </mxCell>
        <mxCell id="ii3OqB7PPO71eHfh43-R-11" value="Auto&lt;br&gt;Selector" style="shape=hexagon;perimeter=hexagonPerimeter2;whiteSpace=wrap;html=1;fixedSize=1;fillColor=#EEEEEE;strokeColor=#FFFFFF;fontColor=#1A1A1A;" vertex="1" parent="WIyWlLk6GJQsqaUBKTNV-1">
          <mxGeometry x="1125" y="47" width="90" height="50" as="geometry" />
        </mxCell>
        <mxCell id="ii3OqB7PPO71eHfh43-R-20" style="edgeStyle=orthogonalEdgeStyle;rounded=0;orthogonalLoop=1;jettySize=auto;html=1;exitX=0.5;exitY=1;exitDx=0;exitDy=0;entryX=0.75;entryY=0;entryDx=0;entryDy=0;strokeColor=#FFFDFC;" edge="1" parent="WIyWlLk6GJQsqaUBKTNV-1" source="ii3OqB7PPO71eHfh43-R-12" target="ii3OqB7PPO71eHfh43-R-18">
          <mxGeometry relative="1" as="geometry" />
        </mxCell>
        <mxCell id="ii3OqB7PPO71eHfh43-R-12" value="Recording&lt;br&gt;Enabled" style="shape=hexagon;perimeter=hexagonPerimeter2;whiteSpace=wrap;html=1;fixedSize=1;fillColor=#EEEEEE;strokeColor=#FFFFFF;fontColor=#1A1A1A;" vertex="1" parent="WIyWlLk6GJQsqaUBKTNV-1">
          <mxGeometry x="970" y="-35" width="90" height="50" as="geometry" />
        </mxCell>
        <mxCell id="ii3OqB7PPO71eHfh43-R-14" style="edgeStyle=orthogonalEdgeStyle;rounded=0;orthogonalLoop=1;jettySize=auto;html=1;exitX=0.5;exitY=0;exitDx=0;exitDy=0;entryX=0;entryY=0.5;entryDx=0;entryDy=0;strokeColor=#FFFDFC;" edge="1" parent="WIyWlLk6GJQsqaUBKTNV-1" source="ii3OqB7PPO71eHfh43-R-13" target="FY5nKimyKRe9Z_fMQVkA-36">
          <mxGeometry relative="1" as="geometry">
            <Array as="points">
              <mxPoint x="1474" y="53" />
            </Array>
          </mxGeometry>
        </mxCell>
        <mxCell id="ii3OqB7PPO71eHfh43-R-13" value="Get if Dock Limit&lt;br&gt;Switch Pressed" style="shape=parallelogram;perimeter=parallelogramPerimeter;whiteSpace=wrap;html=1;fixedSize=1;fillColor=#EEEEEE;strokeColor=#FFFFFF;fontColor=#1A1A1A;" vertex="1" parent="WIyWlLk6GJQsqaUBKTNV-1">
          <mxGeometry x="1400" y="68" width="148" height="39" as="geometry" />
        </mxCell>
        <mxCell id="ii3OqB7PPO71eHfh43-R-18" value="Record {selected}&lt;br&gt;Autonomous" style="rounded=0;whiteSpace=wrap;html=1;fillColor=#EEEEEE;strokeColor=#FFFFFF;fontColor=#1A1A1A;" vertex="1" parent="WIyWlLk6GJQsqaUBKTNV-1">
          <mxGeometry x="925" y="124" width="120" height="60" as="geometry" />
        </mxCell>
        <mxCell id="ii3OqB7PPO71eHfh43-R-26" style="edgeStyle=orthogonalEdgeStyle;rounded=0;orthogonalLoop=1;jettySize=auto;html=1;exitX=1;exitY=0.5;exitDx=0;exitDy=0;entryX=0.5;entryY=0;entryDx=0;entryDy=0;strokeColor=#FFFDFC;" edge="1" parent="WIyWlLk6GJQsqaUBKTNV-1" source="ii3OqB7PPO71eHfh43-R-23" target="FY5nKimyKRe9Z_fMQVkA-6">
          <mxGeometry relative="1" as="geometry" />
        </mxCell>
        <mxCell id="ii3OqB7PPO71eHfh43-R-23" value="Normal&lt;br&gt;Operator Control" style="rounded=0;whiteSpace=wrap;html=1;fillColor=#EEEEEE;strokeColor=#FFFFFF;fontColor=#1A1A1A;" vertex="1" parent="WIyWlLk6GJQsqaUBKTNV-1">
          <mxGeometry x="693" y="229.5" width="120" height="60" as="geometry" />
        </mxCell>
        <mxCell id="ii3OqB7PPO71eHfh43-R-31" style="edgeStyle=orthogonalEdgeStyle;rounded=0;orthogonalLoop=1;jettySize=auto;html=1;exitX=1;exitY=0.5;exitDx=0;exitDy=0;entryX=0;entryY=0.5;entryDx=0;entryDy=0;strokeColor=#FFFDFC;" edge="1" parent="WIyWlLk6GJQsqaUBKTNV-1" source="ii3OqB7PPO71eHfh43-R-29" target="ii3OqB7PPO71eHfh43-R-18">
          <mxGeometry relative="1" as="geometry" />
        </mxCell>
        <mxCell id="ii3OqB7PPO71eHfh43-R-32" style="edgeStyle=orthogonalEdgeStyle;rounded=0;orthogonalLoop=1;jettySize=auto;html=1;exitX=0.5;exitY=0;exitDx=0;exitDy=0;entryX=0.5;entryY=1;entryDx=0;entryDy=0;strokeColor=#FFFDFC;" edge="1" parent="WIyWlLk6GJQsqaUBKTNV-1" source="ii3OqB7PPO71eHfh43-R-29" target="ii3OqB7PPO71eHfh43-R-6">
          <mxGeometry relative="1" as="geometry" />
        </mxCell>
        <mxCell id="ii3OqB7PPO71eHfh43-R-38" style="edgeStyle=orthogonalEdgeStyle;rounded=0;orthogonalLoop=1;jettySize=auto;html=1;exitX=0.5;exitY=1;exitDx=0;exitDy=0;entryX=0;entryY=0.5;entryDx=0;entryDy=0;strokeColor=#FFFDFC;" edge="1" parent="WIyWlLk6GJQsqaUBKTNV-1" source="ii3OqB7PPO71eHfh43-R-29" target="ii3OqB7PPO71eHfh43-R-36">
          <mxGeometry relative="1" as="geometry">
            <Array as="points">
              <mxPoint x="828" y="242" />
            </Array>
          </mxGeometry>
        </mxCell>
        <mxCell id="ii3OqB7PPO71eHfh43-R-29" value="Get if SD Card&lt;br&gt;Is Installed" style="shape=parallelogram;perimeter=parallelogramPerimeter;whiteSpace=wrap;html=1;fixedSize=1;fillColor=#EEEEEE;strokeColor=#FFFFFF;fontColor=#1A1A1A;" vertex="1" parent="WIyWlLk6GJQsqaUBKTNV-1">
          <mxGeometry x="763" y="131" width="130" height="46" as="geometry" />
        </mxCell>
        <mxCell id="ii3OqB7PPO71eHfh43-R-33" value="Enter ReRun Auto" style="rounded=0;whiteSpace=wrap;html=1;fillColor=#EEEEEE;strokeColor=#FFFFFF;fontColor=#1A1A1A;" vertex="1" parent="WIyWlLk6GJQsqaUBKTNV-1">
          <mxGeometry x="512" y="193" width="120" height="40.5" as="geometry" />
        </mxCell>
        <mxCell id="ii3OqB7PPO71eHfh43-R-37" style="edgeStyle=orthogonalEdgeStyle;rounded=0;orthogonalLoop=1;jettySize=auto;html=1;exitX=0.5;exitY=0;exitDx=0;exitDy=0;entryX=0.5;entryY=1;entryDx=0;entryDy=0;strokeColor=#FFFDFC;" edge="1" parent="WIyWlLk6GJQsqaUBKTNV-1" source="ii3OqB7PPO71eHfh43-R-36" target="ii3OqB7PPO71eHfh43-R-11">
          <mxGeometry relative="1" as="geometry">
            <Array as="points">
              <mxPoint x="1038" y="200" />
              <mxPoint x="1170" y="200" />
            </Array>
          </mxGeometry>
        </mxCell>
        <mxCell id="ii3OqB7PPO71eHfh43-R-36" value="Display Error&lt;br&gt;Reporting" style="shape=parallelogram;perimeter=parallelogramPerimeter;whiteSpace=wrap;html=1;fixedSize=1;fillColor=#EEEEEE;strokeColor=#FFFFFF;fontColor=#1A1A1A;" vertex="1" parent="WIyWlLk6GJQsqaUBKTNV-1">
          <mxGeometry x="973" y="219" width="130" height="46" as="geometry" />
        </mxCell>
        <mxCell id="ii3OqB7PPO71eHfh43-R-42" style="edgeStyle=orthogonalEdgeStyle;rounded=0;orthogonalLoop=1;jettySize=auto;html=1;exitX=0.5;exitY=1;exitDx=0;exitDy=0;entryX=0;entryY=0.5;entryDx=0;entryDy=0;strokeColor=#FFFDFC;" edge="1" parent="WIyWlLk6GJQsqaUBKTNV-1" source="ii3OqB7PPO71eHfh43-R-39" target="ii3OqB7PPO71eHfh43-R-40">
          <mxGeometry relative="1" as="geometry">
            <Array as="points">
              <mxPoint x="-445" y="-169" />
            </Array>
          </mxGeometry>
        </mxCell>
        <mxCell id="ii3OqB7PPO71eHfh43-R-48" style="edgeStyle=orthogonalEdgeStyle;rounded=0;orthogonalLoop=1;jettySize=auto;html=1;exitX=0.5;exitY=1;exitDx=0;exitDy=0;entryX=1;entryY=0.5;entryDx=0;entryDy=0;strokeColor=#FFFDFC;" edge="1" parent="WIyWlLk6GJQsqaUBKTNV-1" source="ii3OqB7PPO71eHfh43-R-39" target="ii3OqB7PPO71eHfh43-R-43">
          <mxGeometry relative="1" as="geometry">
            <Array as="points">
              <mxPoint x="-445" y="-169" />
            </Array>
          </mxGeometry>
        </mxCell>
        <mxCell id="ii3OqB7PPO71eHfh43-R-39" value="Operator Control" style="rounded=1;whiteSpace=wrap;html=1;fontSize=12;glass=0;strokeWidth=1;shadow=0;fillColor=#EEEEEE;strokeColor=#FFFFFF;fontColor=#1A1A1A;" vertex="1" parent="WIyWlLk6GJQsqaUBKTNV-1">
          <mxGeometry x="-505" y="-273" width="120" height="40" as="geometry" />
        </mxCell>
        <mxCell id="ii3OqB7PPO71eHfh43-R-49" style="edgeStyle=orthogonalEdgeStyle;rounded=0;orthogonalLoop=1;jettySize=auto;html=1;exitX=0.5;exitY=1;exitDx=0;exitDy=0;entryX=0.5;entryY=0;entryDx=0;entryDy=0;strokeColor=#FFFDFC;" edge="1" parent="WIyWlLk6GJQsqaUBKTNV-1" source="ii3OqB7PPO71eHfh43-R-40" target="ii3OqB7PPO71eHfh43-R-44">
          <mxGeometry relative="1" as="geometry" />
        </mxCell>
        <mxCell id="ii3OqB7PPO71eHfh43-R-40" value="Wants To &lt;br&gt;Record Auto" style="shape=parallelogram;perimeter=parallelogramPerimeter;whiteSpace=wrap;html=1;fixedSize=1;fillColor=#EEEEEE;strokeColor=#FFFFFF;fontColor=#1A1A1A;" vertex="1" parent="WIyWlLk6GJQsqaUBKTNV-1">
          <mxGeometry x="-385" y="-192" width="130" height="46" as="geometry" />
        </mxCell>
        <mxCell id="ii3OqB7PPO71eHfh43-R-53" style="edgeStyle=orthogonalEdgeStyle;rounded=0;orthogonalLoop=1;jettySize=auto;html=1;exitX=0.5;exitY=1;exitDx=0;exitDy=0;entryX=0.5;entryY=0;entryDx=0;entryDy=0;strokeColor=#FFFDFC;" edge="1" parent="WIyWlLk6GJQsqaUBKTNV-1" source="ii3OqB7PPO71eHfh43-R-43" target="ii3OqB7PPO71eHfh43-R-52">
          <mxGeometry relative="1" as="geometry" />
        </mxCell>
        <mxCell id="ii3OqB7PPO71eHfh43-R-43" value="Wants To Drive" style="shape=parallelogram;perimeter=parallelogramPerimeter;whiteSpace=wrap;html=1;fixedSize=1;fillColor=#EEEEEE;strokeColor=#FFFFFF;fontColor=#1A1A1A;" vertex="1" parent="WIyWlLk6GJQsqaUBKTNV-1">
          <mxGeometry x="-639" y="-192" width="130" height="46" as="geometry" />
        </mxCell>
        <mxCell id="ii3OqB7PPO71eHfh43-R-66" style="edgeStyle=orthogonalEdgeStyle;rounded=0;orthogonalLoop=1;jettySize=auto;html=1;exitX=0.5;exitY=1;exitDx=0;exitDy=0;entryX=0.5;entryY=0;entryDx=0;entryDy=0;strokeColor=#FFFDFC;" edge="1" parent="WIyWlLk6GJQsqaUBKTNV-1" source="ii3OqB7PPO71eHfh43-R-44" target="ii3OqB7PPO71eHfh43-R-58">
          <mxGeometry relative="1" as="geometry" />
        </mxCell>
        <mxCell id="ii3OqB7PPO71eHfh43-R-44" value="Get if SD Card&lt;br&gt;Is Installed" style="shape=parallelogram;perimeter=parallelogramPerimeter;whiteSpace=wrap;html=1;fixedSize=1;fillColor=#EEEEEE;strokeColor=#FFFFFF;fontColor=#1A1A1A;" vertex="1" parent="WIyWlLk6GJQsqaUBKTNV-1">
          <mxGeometry x="-385" y="-124" width="130" height="46" as="geometry" />
        </mxCell>
        <mxCell id="ii3OqB7PPO71eHfh43-R-54" style="edgeStyle=orthogonalEdgeStyle;rounded=0;orthogonalLoop=1;jettySize=auto;html=1;exitX=0.5;exitY=1;exitDx=0;exitDy=0;entryX=0.5;entryY=0;entryDx=0;entryDy=0;strokeColor=#FFFDFC;" edge="1" parent="WIyWlLk6GJQsqaUBKTNV-1" source="ii3OqB7PPO71eHfh43-R-50" target="ii3OqB7PPO71eHfh43-R-51">
          <mxGeometry relative="1" as="geometry" />
        </mxCell>
        <mxCell id="ii3OqB7PPO71eHfh43-R-50" value="&lt;span style=&quot;font-weight: normal&quot;&gt;Display&lt;/span&gt;" style="rounded=1;whiteSpace=wrap;html=1;fontSize=12;glass=0;strokeWidth=1;shadow=0;fillColor=#EEEEEE;strokeColor=#FFFFFF;fontColor=#1A1A1A;fontStyle=1" vertex="1" parent="WIyWlLk6GJQsqaUBKTNV-1">
          <mxGeometry x="-634" y="7" width="120" height="40" as="geometry" />
        </mxCell>
        <mxCell id="ii3OqB7PPO71eHfh43-R-73" style="edgeStyle=orthogonalEdgeStyle;rounded=0;orthogonalLoop=1;jettySize=auto;html=1;exitX=0.5;exitY=1;exitDx=0;exitDy=0;strokeColor=#FFFDFC;" edge="1" parent="WIyWlLk6GJQsqaUBKTNV-1" source="ii3OqB7PPO71eHfh43-R-51" target="ii3OqB7PPO71eHfh43-R-64">
          <mxGeometry relative="1" as="geometry" />
        </mxCell>
        <mxCell id="ii3OqB7PPO71eHfh43-R-51" value="Auto&lt;br&gt;Selector" style="shape=hexagon;perimeter=hexagonPerimeter2;whiteSpace=wrap;html=1;fixedSize=1;fillColor=#EEEEEE;strokeColor=#FFFFFF;fontColor=#1A1A1A;" vertex="1" parent="WIyWlLk6GJQsqaUBKTNV-1">
          <mxGeometry x="-619" y="74" width="90" height="50" as="geometry" />
        </mxCell>
        <mxCell id="ii3OqB7PPO71eHfh43-R-52" value="Enter Driver" style="rounded=0;whiteSpace=wrap;html=1;fillColor=#EEEEEE;strokeColor=#FFFFFF;fontColor=#1A1A1A;" vertex="1" parent="WIyWlLk6GJQsqaUBKTNV-1">
          <mxGeometry x="-634" y="-99" width="120" height="40.5" as="geometry" />
        </mxCell>
        <mxCell id="ii3OqB7PPO71eHfh43-R-62" style="edgeStyle=orthogonalEdgeStyle;rounded=0;orthogonalLoop=1;jettySize=auto;html=1;exitX=0.5;exitY=1;exitDx=0;exitDy=0;strokeColor=#FFFDFC;" edge="1" parent="WIyWlLk6GJQsqaUBKTNV-1" source="ii3OqB7PPO71eHfh43-R-58" target="ii3OqB7PPO71eHfh43-R-60">
          <mxGeometry relative="1" as="geometry" />
        </mxCell>
        <mxCell id="ii3OqB7PPO71eHfh43-R-71" style="edgeStyle=orthogonalEdgeStyle;rounded=0;orthogonalLoop=1;jettySize=auto;html=1;exitX=1;exitY=0.5;exitDx=0;exitDy=0;entryX=1;entryY=0.5;entryDx=0;entryDy=0;strokeColor=#FFFDFC;" edge="1" parent="WIyWlLk6GJQsqaUBKTNV-1" source="ii3OqB7PPO71eHfh43-R-58" target="ii3OqB7PPO71eHfh43-R-69">
          <mxGeometry relative="1" as="geometry">
            <Array as="points">
              <mxPoint x="-247" y="-33" />
              <mxPoint x="-247" y="99" />
            </Array>
          </mxGeometry>
        </mxCell>
        <mxCell id="ii3OqB7PPO71eHfh43-R-58" value="Gets Selected&lt;br&gt;Auto Max Time" style="shape=parallelogram;perimeter=parallelogramPerimeter;whiteSpace=wrap;html=1;fixedSize=1;fillColor=#EEEEEE;strokeColor=#FFFFFF;fontColor=#1A1A1A;" vertex="1" parent="WIyWlLk6GJQsqaUBKTNV-1">
          <mxGeometry x="-397" y="-56" width="130" height="46" as="geometry" />
        </mxCell>
        <mxCell id="ii3OqB7PPO71eHfh43-R-70" style="edgeStyle=orthogonalEdgeStyle;rounded=0;orthogonalLoop=1;jettySize=auto;html=1;exitX=0.5;exitY=1;exitDx=0;exitDy=0;entryX=0.5;entryY=0;entryDx=0;entryDy=0;strokeColor=#FFFDFC;" edge="1" parent="WIyWlLk6GJQsqaUBKTNV-1" source="ii3OqB7PPO71eHfh43-R-60" target="ii3OqB7PPO71eHfh43-R-69">
          <mxGeometry relative="1" as="geometry" />
        </mxCell>
        <mxCell id="ii3OqB7PPO71eHfh43-R-60" value="Driver Control" style="rounded=0;whiteSpace=wrap;html=1;fillColor=#EEEEEE;strokeColor=#FFFFFF;fontColor=#1A1A1A;" vertex="1" parent="WIyWlLk6GJQsqaUBKTNV-1">
          <mxGeometry x="-392" y="19" width="120" height="40.5" as="geometry" />
        </mxCell>
        <mxCell id="ii3OqB7PPO71eHfh43-R-75" style="edgeStyle=orthogonalEdgeStyle;rounded=0;orthogonalLoop=1;jettySize=auto;html=1;exitX=0.5;exitY=1;exitDx=0;exitDy=0;entryX=0;entryY=0.5;entryDx=0;entryDy=0;strokeColor=#FFFDFC;" edge="1" parent="WIyWlLk6GJQsqaUBKTNV-1" source="ii3OqB7PPO71eHfh43-R-64" target="ii3OqB7PPO71eHfh43-R-65">
          <mxGeometry relative="1" as="geometry" />
        </mxCell>
        <mxCell id="ii3OqB7PPO71eHfh43-R-64" value="Gets Selected&lt;br&gt;Auto" style="shape=parallelogram;perimeter=parallelogramPerimeter;whiteSpace=wrap;html=1;fixedSize=1;fillColor=#EEEEEE;strokeColor=#FFFFFF;fontColor=#1A1A1A;" vertex="1" parent="WIyWlLk6GJQsqaUBKTNV-1">
          <mxGeometry x="-639" y="155" width="130" height="46" as="geometry" />
        </mxCell>
        <mxCell id="ii3OqB7PPO71eHfh43-R-65" value="Save Auto as&lt;br&gt;Text File" style="rounded=0;whiteSpace=wrap;html=1;fillColor=#EEEEEE;strokeColor=#FFFFFF;fontColor=#1A1A1A;" vertex="1" parent="WIyWlLk6GJQsqaUBKTNV-1">
          <mxGeometry x="-505" y="229.5" width="120" height="40.5" as="geometry" />
        </mxCell>
        <mxCell id="ii3OqB7PPO71eHfh43-R-74" style="edgeStyle=orthogonalEdgeStyle;rounded=0;orthogonalLoop=1;jettySize=auto;html=1;exitX=0;exitY=0.5;exitDx=0;exitDy=0;strokeColor=#FFFDFC;" edge="1" parent="WIyWlLk6GJQsqaUBKTNV-1" source="ii3OqB7PPO71eHfh43-R-68" target="ii3OqB7PPO71eHfh43-R-64">
          <mxGeometry relative="1" as="geometry" />
        </mxCell>
        <mxCell id="ii3OqB7PPO71eHfh43-R-68" value="Driver Control&lt;br&gt;Ends" style="rounded=0;whiteSpace=wrap;html=1;fillColor=#EEEEEE;strokeColor=#FFFFFF;fontColor=#1A1A1A;" vertex="1" parent="WIyWlLk6GJQsqaUBKTNV-1">
          <mxGeometry x="-392" y="143.5" width="120" height="40.5" as="geometry" />
        </mxCell>
        <mxCell id="ii3OqB7PPO71eHfh43-R-72" style="edgeStyle=orthogonalEdgeStyle;rounded=0;orthogonalLoop=1;jettySize=auto;html=1;exitX=0.5;exitY=1;exitDx=0;exitDy=0;entryX=0.5;entryY=0;entryDx=0;entryDy=0;strokeColor=#FFFDFC;" edge="1" parent="WIyWlLk6GJQsqaUBKTNV-1" source="ii3OqB7PPO71eHfh43-R-69" target="ii3OqB7PPO71eHfh43-R-68">
          <mxGeometry relative="1" as="geometry" />
        </mxCell>
        <mxCell id="ii3OqB7PPO71eHfh43-R-69" value="Wait Max&lt;br&gt;Time" style="shape=hexagon;perimeter=hexagonPerimeter2;whiteSpace=wrap;html=1;fixedSize=1;fillColor=#EEEEEE;strokeColor=#FFFFFF;fontColor=#1A1A1A;" vertex="1" parent="WIyWlLk6GJQsqaUBKTNV-1">
          <mxGeometry x="-377" y="74" width="90" height="50" as="geometry" />
        </mxCell>
      </root>
    </mxGraphModel>
  </diagram>
</mxfile>
